<mxfile host="Electron" agent="Mozilla/5.0 (Windows NT 10.0; Win64; x64) AppleWebKit/537.36 (KHTML, like Gecko) draw.io/26.0.9 Chrome/128.0.6613.186 Electron/32.2.5 Safari/537.36" version="26.0.9">
  <diagram name="Page-1" id="jtpY4GQttrNWl5fg9Wdn">
    <mxGraphModel dx="2088" dy="1640" grid="1" gridSize="10" guides="1" tooltips="1" connect="1" arrows="1" fold="1" page="1" pageScale="1" pageWidth="850" pageHeight="1100" math="0" shadow="0">
      <root>
        <mxCell id="0" />
        <mxCell id="1" parent="0" />
        <mxCell id="KicCTcTTGhSGw9f-1N8v-5" value="" style="ellipse;whiteSpace=wrap;html=1;" vertex="1" parent="1">
          <mxGeometry x="20" y="240" width="160" height="80" as="geometry" />
        </mxCell>
        <mxCell id="KicCTcTTGhSGw9f-1N8v-6" value="" style="endArrow=classic;html=1;rounded=0;" edge="1" parent="1">
          <mxGeometry width="50" height="50" relative="1" as="geometry">
            <mxPoint x="180" y="279.41" as="sourcePoint" />
            <mxPoint x="260" y="279.41" as="targetPoint" />
          </mxGeometry>
        </mxCell>
        <mxCell id="KicCTcTTGhSGw9f-1N8v-8" value="&amp;nbsp; &amp;nbsp; &amp;nbsp; &amp;nbsp; &amp;nbsp; &amp;nbsp; &amp;nbsp; &amp;nbsp; &amp;nbsp; &amp;nbsp; &amp;nbsp; &amp;nbsp; &amp;nbsp; &amp;nbsp; &amp;nbsp; &amp;nbsp; &amp;nbsp; &amp;nbsp; &amp;nbsp; &amp;nbsp;" style="rounded=1;whiteSpace=wrap;html=1;" vertex="1" parent="1">
          <mxGeometry x="260" y="230" width="140" height="100" as="geometry" />
        </mxCell>
        <mxCell id="KicCTcTTGhSGw9f-1N8v-9" value="" style="endArrow=classic;html=1;rounded=0;exitX=1;exitY=0.5;exitDx=0;exitDy=0;" edge="1" parent="1" source="KicCTcTTGhSGw9f-1N8v-8">
          <mxGeometry width="50" height="50" relative="1" as="geometry">
            <mxPoint x="320" y="100" as="sourcePoint" />
            <mxPoint x="480" y="280" as="targetPoint" />
            <Array as="points">
              <mxPoint x="480" y="280" />
            </Array>
          </mxGeometry>
        </mxCell>
        <mxCell id="KicCTcTTGhSGw9f-1N8v-10" value="" style="rounded=1;whiteSpace=wrap;html=1;" vertex="1" parent="1">
          <mxGeometry x="480" y="230" width="150" height="100" as="geometry" />
        </mxCell>
        <mxCell id="KicCTcTTGhSGw9f-1N8v-13" value="" style="endArrow=classic;html=1;rounded=0;exitX=0.5;exitY=1;exitDx=0;exitDy=0;" edge="1" parent="1" source="KicCTcTTGhSGw9f-1N8v-10">
          <mxGeometry width="50" height="50" relative="1" as="geometry">
            <mxPoint x="400" y="450" as="sourcePoint" />
            <mxPoint x="555" y="430" as="targetPoint" />
          </mxGeometry>
        </mxCell>
        <mxCell id="KicCTcTTGhSGw9f-1N8v-18" value="" style="rounded=1;whiteSpace=wrap;html=1;" vertex="1" parent="1">
          <mxGeometry x="440" y="430" width="280" height="120" as="geometry" />
        </mxCell>
        <mxCell id="KicCTcTTGhSGw9f-1N8v-20" value="" style="endArrow=classic;html=1;rounded=0;entryX=1;entryY=0.5;entryDx=0;entryDy=0;" edge="1" parent="1" target="KicCTcTTGhSGw9f-1N8v-21">
          <mxGeometry width="50" height="50" relative="1" as="geometry">
            <mxPoint x="440" y="490" as="sourcePoint" />
            <mxPoint x="350" y="490" as="targetPoint" />
          </mxGeometry>
        </mxCell>
        <mxCell id="KicCTcTTGhSGw9f-1N8v-21" value="" style="rhombus;whiteSpace=wrap;html=1;" vertex="1" parent="1">
          <mxGeometry x="160" y="420" width="200" height="140" as="geometry" />
        </mxCell>
        <mxCell id="KicCTcTTGhSGw9f-1N8v-22" value="" style="endArrow=classic;html=1;rounded=0;exitX=0;exitY=0.5;exitDx=0;exitDy=0;entryX=0.95;entryY=0.556;entryDx=0;entryDy=0;entryPerimeter=0;" edge="1" parent="1" source="KicCTcTTGhSGw9f-1N8v-21">
          <mxGeometry width="50" height="50" relative="1" as="geometry">
            <mxPoint x="110" y="570" as="sourcePoint" />
            <mxPoint x="70" y="490.03999999999996" as="targetPoint" />
          </mxGeometry>
        </mxCell>
        <mxCell id="KicCTcTTGhSGw9f-1N8v-24" value="" style="endArrow=classic;html=1;rounded=0;" edge="1" parent="1">
          <mxGeometry width="50" height="50" relative="1" as="geometry">
            <mxPoint x="-40" y="528" as="sourcePoint" />
            <mxPoint x="-40" y="620" as="targetPoint" />
          </mxGeometry>
        </mxCell>
        <mxCell id="KicCTcTTGhSGw9f-1N8v-25" value="" style="ellipse;whiteSpace=wrap;html=1;" vertex="1" parent="1">
          <mxGeometry x="-130" y="775" width="160" height="80" as="geometry" />
        </mxCell>
        <mxCell id="KicCTcTTGhSGw9f-1N8v-26" value="" style="endArrow=classic;html=1;rounded=0;exitX=0.5;exitY=1;exitDx=0;exitDy=0;entryX=1;entryY=0.5;entryDx=0;entryDy=0;" edge="1" parent="1" source="KicCTcTTGhSGw9f-1N8v-21" target="KicCTcTTGhSGw9f-1N8v-50">
          <mxGeometry width="50" height="50" relative="1" as="geometry">
            <mxPoint x="220" y="660" as="sourcePoint" />
            <mxPoint x="81" y="676" as="targetPoint" />
            <Array as="points">
              <mxPoint x="260" y="670" />
            </Array>
          </mxGeometry>
        </mxCell>
        <mxCell id="KicCTcTTGhSGw9f-1N8v-27" value="&lt;h2&gt;MULAI&lt;/h2&gt;" style="text;html=1;align=center;verticalAlign=middle;whiteSpace=wrap;rounded=0;" vertex="1" parent="1">
          <mxGeometry x="30" y="250" width="140" height="60" as="geometry" />
        </mxCell>
        <mxCell id="KicCTcTTGhSGw9f-1N8v-28" value="&lt;h2&gt;LOGIN KE&lt;br&gt;SISTEM&lt;/h2&gt;" style="text;html=1;align=center;verticalAlign=middle;whiteSpace=wrap;rounded=0;" vertex="1" parent="1">
          <mxGeometry x="270" y="230" width="120" height="100" as="geometry" />
        </mxCell>
        <mxCell id="KicCTcTTGhSGw9f-1N8v-29" value="&lt;h2&gt;PILIH MENU ABSENSI QR&lt;/h2&gt;" style="text;html=1;align=center;verticalAlign=middle;whiteSpace=wrap;rounded=0;" vertex="1" parent="1">
          <mxGeometry x="500" y="245" width="115" height="70" as="geometry" />
        </mxCell>
        <mxCell id="KicCTcTTGhSGw9f-1N8v-32" value="&lt;h2&gt;SCAN QR CODE&amp;nbsp;&lt;br&gt;(DITAMPILKAN OLEH DOSEN)&lt;/h2&gt;" style="text;html=1;align=center;verticalAlign=middle;whiteSpace=wrap;rounded=0;" vertex="1" parent="1">
          <mxGeometry x="447.5" y="445" width="265" height="90" as="geometry" />
        </mxCell>
        <mxCell id="KicCTcTTGhSGw9f-1N8v-33" value="&lt;h2&gt;SELESAI&lt;/h2&gt;" style="text;html=1;align=center;verticalAlign=middle;whiteSpace=wrap;rounded=0;" vertex="1" parent="1">
          <mxGeometry x="-80" y="800" width="60" height="30" as="geometry" />
        </mxCell>
        <mxCell id="KicCTcTTGhSGw9f-1N8v-37" value="&lt;h2&gt;VALIDASI DATA MAHASISWA&lt;/h2&gt;" style="text;html=1;align=center;verticalAlign=middle;whiteSpace=wrap;rounded=0;" vertex="1" parent="1">
          <mxGeometry x="185" y="465" width="150" height="50" as="geometry" />
        </mxCell>
        <mxCell id="KicCTcTTGhSGw9f-1N8v-39" value="Ada" style="text;html=1;align=center;verticalAlign=middle;whiteSpace=wrap;rounded=0;" vertex="1" parent="1">
          <mxGeometry x="90" y="460" width="60" height="30" as="geometry" />
        </mxCell>
        <mxCell id="KicCTcTTGhSGw9f-1N8v-40" value="Tidak Ada" style="text;html=1;align=center;verticalAlign=middle;whiteSpace=wrap;rounded=0;" vertex="1" parent="1">
          <mxGeometry x="190" y="630" width="60" height="30" as="geometry" />
        </mxCell>
        <mxCell id="KicCTcTTGhSGw9f-1N8v-48" value="" style="shape=cylinder3;whiteSpace=wrap;html=1;boundedLbl=1;backgroundOutline=1;size=15;" vertex="1" parent="1">
          <mxGeometry x="-150" y="440" width="220" height="90" as="geometry" />
        </mxCell>
        <mxCell id="KicCTcTTGhSGw9f-1N8v-49" value="&lt;h2&gt;SIMPAN CATATAN KEHADIRAN&lt;/h2&gt;" style="text;html=1;align=center;verticalAlign=middle;whiteSpace=wrap;rounded=0;" vertex="1" parent="1">
          <mxGeometry x="-130" y="460" width="180" height="75" as="geometry" />
        </mxCell>
        <mxCell id="KicCTcTTGhSGw9f-1N8v-50" value="" style="shape=parallelogram;perimeter=parallelogramPerimeter;whiteSpace=wrap;html=1;fixedSize=1;" vertex="1" parent="1">
          <mxGeometry x="-160" y="620" width="230" height="100" as="geometry" />
        </mxCell>
        <mxCell id="KicCTcTTGhSGw9f-1N8v-51" value="&lt;h2&gt;SISTEM MENAMPILKAN DATA MAHASISWA&lt;/h2&gt;" style="text;html=1;align=center;verticalAlign=middle;whiteSpace=wrap;rounded=0;" vertex="1" parent="1">
          <mxGeometry x="-140" y="620" width="180" height="100" as="geometry" />
        </mxCell>
        <mxCell id="KicCTcTTGhSGw9f-1N8v-53" value="" style="endArrow=classic;html=1;rounded=0;exitX=0.5;exitY=1;exitDx=0;exitDy=0;" edge="1" parent="1" source="KicCTcTTGhSGw9f-1N8v-51" target="KicCTcTTGhSGw9f-1N8v-25">
          <mxGeometry width="50" height="50" relative="1" as="geometry">
            <mxPoint x="230" y="590" as="sourcePoint" />
            <mxPoint x="280" y="540" as="targetPoint" />
          </mxGeometry>
        </mxCell>
      </root>
    </mxGraphModel>
  </diagram>
</mxfile>
